<?xml version="1.0" standalone="no"?>
<!DOCTYPE svg PUBLIC "-//W3C//DTD SVG 20010904//EN"
 "http://www.w3.org/TR/2001/REC-SVG-20010904/DTD/svg10.dtd">
<svg version="1.0" xmlns="http://www.w3.org/2000/svg"
 width="408.000000pt" height="612.000000pt" viewBox="0 0 408.000000 612.000000"
 preserveAspectRatio="xMidYMid meet">

<g transform="translate(0.000000,612.000000) scale(0.100000,-0.100000)"
fill="#000000" stroke="none">
<path d="M3238 5023 c7 -3 16 -2 19 1 4 3 -2 6 -13 5 -11 0 -14 -3 -6 -6z"/>
<path d="M3300 5000 c14 -12 24 -26 23 -31 -2 -5 2 -9 7 -9 6 0 10 7 10 15 0
8 -4 15 -10 15 -5 0 -9 6 -7 12 1 7 -9 14 -23 16 l-25 4 25 -22z"/>
<path d="M2412 4964 c-129 -27 -223 -75 -293 -150 -111 -120 -173 -230 -225
-399 -23 -77 -27 -107 -27 -205 0 -152 12 -191 66 -227 56 -38 67 -65 79 -191
10 -105 5 -405 -8 -469 -5 -29 -4 -33 14 -33 12 0 24 5 27 10 17 28 26 -9 22
-93 -3 -56 0 -101 7 -116 10 -24 11 -23 16 19 l6 45 21 -45 c24 -51 89 -231
99 -272 3 -15 2 -33 -3 -42 -6 -12 -21 8 -58 81 -28 54 -51 89 -53 80 -4 -22
-11 -21 -42 3 -36 28 -40 25 -40 -24 0 -95 -51 -60 -76 53 -10 42 -17 82 -17
89 0 9 -10 10 -34 6 -27 -5 -39 -2 -59 17 -49 46 -22 96 46 85 46 -7 50 1 16
41 -31 37 -46 67 -46 91 0 27 -26 48 -34 27 -3 -8 -1 -15 4 -15 6 0 5 -9 -2
-20 -19 -30 -31 -24 -24 10 3 17 1 30 -5 30 -6 0 -8 -27 -7 -66 3 -56 0 -69
-15 -78 -23 -14 -44 11 -53 63 -3 20 -8 43 -11 51 -5 13 -7 13 -10 -1 -3 -11
-11 -15 -26 -12 l-22 5 21 -19 c12 -11 32 -39 44 -64 13 -24 38 -68 56 -97 19
-29 34 -54 34 -56 0 -2 -12 -7 -26 -10 -18 -5 -33 -1 -48 11 -11 9 -15 11 -8
3 6 -8 12 -31 12 -52 0 -36 -2 -38 -32 -38 -23 0 -29 -3 -19 -9 19 -12 -3 -24
-30 -16 -15 5 -19 3 -17 -8 7 -35 -151 -177 -232 -207 -81 -30 -90 -43 -55
-80 l27 -29 -8 -483 c-5 -266 -9 -497 -8 -514 l1 -31 -90 1 c-60 1 -96 -3
-109 -12 -23 -16 -15 -32 16 -32 13 0 29 -7 37 -16 11 -13 14 -13 20 -1 9 15
59 12 59 -3 0 -8 43 -18 105 -24 22 -2 54 -6 70 -9 44 -9 170 -33 250 -50 99
-20 153 -14 290 31 66 22 137 43 157 46 20 4 38 11 40 17 2 6 25 13 51 15 29
3 57 12 70 24 11 11 19 21 16 21 -10 3 -57 7 -110 10 l-57 3 -6 72 c-4 39 -4
90 0 113 8 49 5 47 159 55 l109 6 41 -32 c40 -33 41 -33 155 -34 210 -2 572
-40 703 -74 113 -28 582 -117 710 -134 l37 -5 0 236 0 235 -79 147 c-43 80
-116 208 -161 285 -45 76 -103 182 -128 235 -61 132 -152 344 -148 348 3 3
127 -138 201 -229 22 -28 72 -87 111 -134 44 -51 89 -120 118 -178 61 -122
112 -173 70 -70 -27 67 -75 155 -112 208 -20 28 -73 105 -117 171 -45 66 -123
181 -175 255 -112 161 -254 386 -287 455 -14 28 -23 40 -20 27 9 -40 -14 -12
-44 53 -31 69 -39 108 -24 115 6 3 20 -22 32 -55 12 -33 22 -51 22 -39 1 12
-12 47 -28 78 -15 31 -26 66 -24 79 5 27 -2 58 -60 257 -24 85 -52 191 -61
235 -57 268 -137 423 -277 541 -49 41 -155 91 -217 104 -75 15 -199 16 -260 4z
m-18 -653 l47 -61 -27 -10 c-15 -6 -31 -13 -36 -16 -12 -7 -34 50 -43 110 -9
59 -4 57 59 -23z m-269 -103 c5 -23 3 -38 -3 -38 -11 0 -22 33 -22 70 0 35 17
13 25 -32z m365 -3 c32 -33 33 -35 11 -35 -25 0 -85 -56 -75 -71 8 -14 34 -10
34 5 0 8 7 16 15 20 10 4 15 -1 15 -15 0 -21 11 -28 56 -34 16 -2 31 -4 33 -4
2 -1 -2 -8 -9 -16 -10 -12 -10 -15 3 -15 18 0 42 64 31 82 -6 10 -4 10 9 0 16
-14 37 -9 37 9 0 13 -63 39 -94 39 -18 0 -27 8 -35 31 -6 18 -11 33 -11 34 0
1 37 -16 83 -40 80 -41 82 -42 90 -86 6 -30 4 -74 -6 -130 -8 -46 -13 -86 -11
-88 2 -2 18 20 36 49 l33 53 3 -61 c3 -56 0 -67 -29 -109 -18 -25 -32 -52 -32
-59 0 -7 -3 -11 -7 -9 -4 2 -24 -14 -46 -36 -51 -54 -154 -120 -174 -114 -46
15 -208 109 -227 132 -11 14 -38 65 -59 112 -21 47 -43 93 -51 102 -15 18 -17
39 -3 39 6 0 10 11 10 24 0 24 29 46 31 23 2 -28 8 -49 19 -62 13 -16 35 -21
26 -6 -3 5 4 11 16 14 29 8 33 3 13 -17 -14 -13 -14 -16 -2 -16 39 0 28 80
-17 116 -17 14 -24 22 -16 18 13 -7 13 -6 0 11 -13 16 -15 16 -18 2 -2 -11
-13 -17 -28 -17 -33 0 -66 -32 -58 -56 5 -16 2 -15 -15 4 -16 19 -18 26 -8 37
7 7 15 11 19 9 3 -2 4 5 1 16 -3 11 0 27 7 35 10 13 15 12 32 -8 l19 -22 -11
23 c-12 25 -8 35 14 38 8 1 17 -8 20 -20 5 -18 8 -19 16 -6 5 8 10 10 10 4 0
-7 6 -14 14 -17 10 -4 12 0 8 15 -5 20 -2 19 32 -7 41 -31 102 -44 92 -19 -4
10 0 11 20 4 36 -14 36 -14 14 23 -30 48 -26 62 10 37 34 -24 37 -20 14 15
-16 24 -16 25 17 40 45 19 40 20 79 -20z m766 -295 c14 -58 20 -98 14 -104 -6
-6 -13 1 -20 18 -11 31 -50 218 -49 238 1 25 31 -57 55 -152z m-356 116 c0 -2
-8 -10 -17 -17 -16 -13 -17 -12 -4 4 13 16 21 21 21 13z m-215 -295 c-9 -8
-36 -10 -30 -2 2 4 11 8 20 8 8 0 13 -3 10 -6z m-45 -35 c0 -2 -7 -7 -16 -10
-8 -3 -12 -2 -9 4 6 10 25 14 25 6z m-322 -65 c12 -14 27 -42 32 -61 15 -52
-15 -85 -105 -120 -27 -10 -75 -68 -75 -89 0 -5 -7 -14 -15 -21 -24 -20 -30
14 -10 68 9 26 22 65 29 87 7 22 27 71 44 108 29 61 34 68 54 61 13 -4 33 -19
46 -33z m275 24 c-3 -9 -8 -14 -10 -11 -3 3 -2 9 2 15 9 16 15 13 8 -4z m41
-20 c-4 -8 -1 -15 5 -15 6 0 8 -6 5 -14 -3 -8 0 -17 7 -22 8 -5 10 -3 4 6 -6
10 -3 12 13 8 27 -7 27 -4 3 19 -19 18 -19 18 9 18 41 0 57 -18 41 -47 -11
-22 -11 -22 -6 4 5 26 -10 47 -23 33 -4 -4 -2 -10 4 -12 6 -2 9 -15 6 -29 -3
-17 -8 -22 -16 -15 -8 6 -11 2 -11 -13 l0 -23 28 20 c15 12 27 24 27 29 0 4 5
8 10 8 6 0 10 -39 10 -97 1 -58 7 -114 15 -138 12 -33 12 -42 1 -53 -11 -11
-19 -5 -50 38 -20 28 -40 48 -45 46 -5 -3 -12 9 -15 27 -3 19 -13 42 -21 53
-12 17 -15 17 -28 4 -8 -8 -17 -30 -21 -49 -5 -30 -4 -32 11 -20 14 12 16 12
11 -1 -3 -8 -13 -15 -24 -15 -10 0 -25 -4 -33 -9 -10 -6 -12 -4 -7 10 3 11 2
25 -3 33 -7 11 -16 5 -38 -27 -24 -35 -60 -59 -71 -48 -7 7 42 152 70 209 30
61 53 73 60 32 3 -14 1 -25 -3 -25 -12 0 -10 -39 4 -75 l12 -30 27 26 27 26
-24 35 c-13 20 -27 48 -31 64 -7 26 -6 28 9 15 15 -12 17 -11 18 5 0 16 2 16
9 -3 5 -13 12 -23 15 -23 4 0 3 5 0 10 -7 11 0 40 9 40 3 0 3 -7 0 -15z m179
-95 c4 -30 3 -38 -3 -25 -8 19 -14 83 -6 74 2 -2 6 -24 9 -49z m88 -61 c-5
-13 -10 -19 -10 -12 -1 15 10 45 15 40 3 -2 0 -15 -5 -28z m-14 -51 c-3 -8 -6
-5 -6 6 -1 11 2 17 5 13 3 -3 4 -12 1 -19z m28 -28 c3 -5 1 -10 -4 -10 -6 0
-11 5 -11 10 0 6 2 10 4 10 3 0 8 -4 11 -10z m8 -46 c58 -4 65 -19 45 -85 -9
-33 -15 -38 -32 -34 -19 6 -20 5 -4 -8 17 -14 15 -50 -8 -162 -2 -11 -18 -29
-36 -40 -17 -11 -34 -26 -36 -34 -3 -10 5 -7 23 7 35 28 41 28 61 -3 16 -24
15 -27 0 -44 -10 -11 -28 -18 -41 -16 -14 1 -22 -2 -19 -7 6 -10 -35 -47 -52
-48 -17 0 -47 75 -39 99 3 12 10 19 15 16 13 -8 -1 33 -16 46 -8 6 -14 23 -14
36 0 22 4 25 25 21 19 -4 25 -1 25 12 0 9 13 35 29 58 53 72 50 162 -4 162
l-26 0 21 31 c21 29 23 30 42 12 11 -9 29 -18 41 -19z m385 -71 c-6 -25 -15
-40 -21 -36 -5 3 -7 1 -4 -4 6 -9 -1 -42 -20 -93 -3 -8 -8 -24 -10 -34 -7 -36
-31 -101 -58 -153 -30 -61 -43 -71 -19 -15 9 20 23 57 31 82 9 25 19 53 24 62
9 18 2 48 -11 48 -5 0 -17 -11 -28 -25 -19 -24 -24 -41 -57 -180 -25 -104 -24
-102 -35 -85 -22 34 -4 178 33 265 43 103 110 188 131 167 4 -3 4 2 0 12 -5
14 -4 17 4 12 7 -4 12 -3 12 3 0 6 7 8 15 5 11 -5 14 -2 9 12 -5 14 -4 16 4 9
8 -7 8 -22 0 -52z m-161 13 c-3 -8 -1 -16 4 -18 6 -2 0 -28 -15 -63 -15 -32
-24 -65 -22 -72 3 -7 -3 -36 -13 -65 -10 -29 -22 -71 -26 -93 l-8 -40 -24 90
c-33 124 -33 124 -43 100 -12 -29 4 -130 41 -254 10 -35 19 -75 19 -89 0 -25
0 -25 -31 9 -17 19 -49 53 -70 76 -36 38 -37 42 -20 48 28 8 35 40 18 74 -9
18 -13 46 -9 77 7 81 23 115 62 137 19 10 58 36 85 58 56 43 59 45 52 25z
m-1340 -48 c-3 -7 -5 -2 -5 12 0 14 2 19 5 13 2 -7 2 -19 0 -25z m516 -28 c9
-32 17 -65 17 -71 0 -7 7 -20 15 -29 17 -19 11 -40 -41 -142 l-24 -46 37 -22
c66 -38 74 -41 83 -35 6 4 10 11 10 16 0 20 147 314 163 328 16 12 17 8 18
-45 4 -229 6 -272 13 -297 5 -17 14 -26 22 -23 7 3 29 8 48 12 30 5 36 3 36
-11 0 -17 1 -17 18 -2 10 10 29 17 43 16 17 0 2 -11 -49 -35 -85 -39 -129 -53
-118 -35 4 6 3 11 -3 11 -5 0 -13 -4 -16 -10 -3 -5 -22 -10 -41 -10 -32 0 -34
2 -28 28 3 15 19 51 35 80 16 28 25 52 20 52 -6 0 -13 -4 -16 -10 -11 -17 -23
-11 -27 13 -2 12 -11 -18 -21 -67 -9 -49 -19 -92 -22 -94 -3 -3 -21 -1 -40 5
l-35 11 22 -31 c11 -18 29 -39 39 -47 9 -8 19 -24 21 -34 5 -30 25 -30 53 -2
17 17 24 33 20 45 -4 14 3 20 37 31 24 7 53 13 64 15 12 1 35 11 50 22 16 11
39 26 52 32 21 11 22 10 17 -11 -24 -109 -31 -251 -15 -344 12 -70 12 -76 -6
-90 -31 -24 -78 -9 -182 59 -53 35 -110 72 -127 82 l-30 18 19 -29 c10 -16 30
-41 44 -56 31 -34 24 -44 -19 -29 -39 14 -89 14 -89 1 0 -42 93 -117 130 -105
10 3 21 1 25 -5 4 -6 -5 -10 -21 -10 -27 0 -26 0 12 -28 55 -40 69 -58 50 -65
-8 -3 -17 -1 -20 6 -2 7 -5 5 -5 -5 -1 -9 4 -20 9 -23 6 -4 8 -10 5 -15 -3 -5
3 -11 14 -15 10 -3 26 -14 36 -25 18 -20 18 -19 72 11 51 29 59 31 122 25 39
-4 79 -3 94 3 15 6 26 7 26 3 -3 -20 4 -34 32 -67 17 -19 38 -35 47 -35 9 0
26 -12 38 -27 l21 -27 12 25 c11 22 11 22 -2 6 -12 -14 -17 -15 -23 -6 -4 7
-2 15 4 17 7 2 9 8 6 14 -4 7 -9 6 -13 -1 -5 -7 -19 8 -38 36 -48 76 -47 75
-29 89 13 9 15 17 8 29 -13 25 -2 67 20 73 11 2 29 19 41 37 12 18 48 67 80
109 32 42 96 133 142 201 78 116 115 165 115 151 0 -21 -34 -85 -43 -79 -5 3
-7 1 -3 -5 9 -14 -12 -65 -24 -57 -5 3 -8 0 -5 -7 12 -31 -234 -401 -263 -396
-32 6 -20 -18 18 -36 22 -11 38 -21 36 -24 -3 -2 -19 3 -37 12 -18 9 -34 14
-37 11 -2 -2 7 -9 21 -16 15 -7 25 -19 24 -30 -1 -10 -5 -15 -9 -13 -5 3 -6
10 -3 15 4 5 2 9 -4 9 -5 0 -11 -3 -14 -7 -2 -5 -2 -3 -1 4 4 15 -24 25 -42
15 -11 -6 -2 -22 40 -72 49 -61 67 -101 42 -97 -6 1 -10 -3 -9 -9 3 -16 -51
-3 -132 32 -36 15 -68 24 -72 20 -4 -3 15 -29 42 -56 27 -28 45 -50 39 -50
-27 0 -115 37 -171 72 -35 22 -72 38 -84 36 l-21 -3 21 -27 c12 -15 54 -50 94
-79 39 -28 76 -55 80 -59 12 -11 -75 5 -190 34 -100 26 -233 39 -233 24 0 -4
20 -22 45 -40 49 -37 57 -51 23 -44 -13 3 -40 8 -62 11 -25 4 -48 17 -66 37
-27 29 -31 30 -77 23 -41 -7 -44 -9 -23 -15 25 -7 25 -7 -6 -14 -17 -4 -52 -6
-78 -4 l-46 3 0 145 0 145 28 -28 c20 -21 24 -30 14 -36 -8 -4 6 -8 33 -8 43
0 46 2 65 41 10 23 26 72 35 109 l16 69 -41 44 c-93 101 -115 227 -65 369 33
90 37 112 26 120 -5 3 -17 -5 -25 -17 -25 -35 -20 3 5 46 13 22 16 36 9 36 -6
0 -9 4 -6 9 3 5 -4 11 -15 14 -16 4 -20 11 -16 26 3 12 0 24 -5 27 -7 4 -5 10
5 15 9 5 17 31 21 66 8 63 34 153 44 153 4 0 15 -27 25 -60z m841 10 c-17 -33
-27 -40 -17 -12 6 17 23 42 28 42 2 0 -3 -13 -11 -30z m-964 -38 c0 -9 9 -34
20 -55 16 -30 17 -37 6 -37 -8 0 -22 10 -30 22 -18 25 -22 88 -6 88 6 0 10 -8
10 -18z m931 -25 c-10 -9 -11 -8 -5 6 3 10 9 15 12 12 3 -3 0 -11 -7 -18z
m219 -149 c-13 -71 -61 -183 -137 -323 -30 -55 -68 -130 -86 -167 -18 -37 -35
-67 -38 -68 -4 0 -12 29 -18 65 -11 59 -10 70 9 112 17 39 18 51 9 78 -13 34
-15 27 48 145 14 25 22 37 19 28 -3 -10 -1 -18 3 -18 14 0 137 136 168 186 33
52 39 43 23 -38z m-1467 49 c4 3 7 1 7 -6 0 -24 -41 -71 -62 -71 -19 0 -20 4
-14 42 9 56 13 60 40 43 12 -8 26 -12 29 -8z m340 -61 c7 -27 6 -41 -3 -49
-10 -10 -12 -7 -7 11 3 12 1 20 -4 16 -5 -3 -9 4 -9 15 0 10 -3 27 -7 37 -4
12 -2 15 8 12 7 -2 18 -21 22 -42z m318 -113 c-12 -20 -14 -14 -5 12 4 9 9 14
11 11 3 -2 0 -13 -6 -23z m-438 -23 c30 -15 77 -65 77 -81 0 -6 -16 -9 -36 -7
-42 3 -88 51 -100 103 -7 29 -6 29 12 15 10 -9 32 -22 47 -30z m757 -11 c-17
-32 -5 -34 19 -3 l21 27 38 -39 c52 -56 106 -159 98 -190 -10 -40 -159 -241
-188 -252 -17 -7 -40 75 -45 164 -8 135 24 314 57 314 8 0 7 -6 0 -21z m-624
-85 c-8 -21 -15 -34 -15 -28 -1 15 20 76 25 71 2 -2 -2 -21 -10 -43z m-24
-102 c-2 -60 10 -131 33 -187 8 -18 7 -19 -10 -5 -19 15 -19 14 -2 -13 26 -40
18 -48 -26 -28 l-38 16 4 120 c4 113 19 186 34 171 4 -4 6 -37 5 -74z m-92
-484 c0 -255 -4 -468 -8 -474 -6 -10 -263 -96 -269 -91 -8 9 -14 521 -8 730
l7 257 24 0 c29 0 207 30 213 36 2 2 13 4 23 4 17 0 18 -21 18 -462z m-642
446 c20 -6 22 -13 24 -83 l2 -76 3 78 4 77 67 -5 c37 -3 95 -8 128 -11 l61 -5
7 -67 c3 -37 6 -259 6 -494 0 -415 -1 -428 -19 -428 -11 0 -93 13 -183 30 -89
16 -163 30 -163 30 -2 0 -3 85 -10 498 l-8 462 29 0 c16 0 39 -3 52 -6z m732
-279 c0 -7 -9 -23 -20 -36 l-19 -24 0 60 0 60 19 -24 c11 -13 20 -29 20 -36z
m930 -155 c-12 -8 -10 -10 8 -10 13 0 33 -5 44 -11 17 -9 18 -13 7 -20 -17
-11 -51 -1 -62 18 -7 11 -12 12 -23 2 -11 -9 -14 -8 -14 5 0 10 4 15 9 11 5
-3 12 -1 16 5 3 5 12 10 18 10 7 0 6 -4 -3 -10z m-1067 -622 c-15 -4 -32 -3
-39 3 -8 7 -14 7 -19 -1 -3 -5 -17 -10 -31 -10 -14 0 -34 -5 -46 -11 -19 -10
-38 -5 -25 7 3 3 41 16 84 29 72 21 79 22 91 7 11 -14 9 -18 -15 -24z m-449
-1 c75 -13 131 -28 134 -35 4 -14 -69 -9 -185 14 -40 8 -90 14 -113 14 -37 0
-49 8 -33 23 11 12 63 7 197 -16z"/>
<path d="M2500 4058 c0 -9 5 -20 11 -23 17 -11 18 -2 3 19 -12 17 -14 17 -14
4z"/>
<path d="M2300 3891 c0 -20 13 -35 23 -25 7 8 -4 44 -14 44 -5 0 -9 -9 -9 -19z"/>
<path d="M2922 2985 c4 -4 3 -14 -4 -22 -6 -7 -8 -16 -5 -19 3 -3 10 3 16 15
8 15 8 22 -1 27 -7 4 -10 4 -6 -1z"/>
<path d="M2576 3133 c-6 -14 -5 -15 5 -6 7 7 10 15 7 18 -3 3 -9 -2 -12 -12z"/>
<path d="M2310 2861 c0 -5 7 -12 16 -15 14 -5 15 -4 4 9 -14 17 -20 19 -20 6z"/>
<path d="M2638 2813 c7 -3 16 -2 19 1 4 3 -2 6 -13 5 -11 0 -14 -3 -6 -6z"/>
<path d="M2488 2623 c37 -47 93 -99 71 -67 -28 41 -84 104 -92 104 -5 0 5 -17
21 -37z"/>
<path d="M3016 2158 c10 -14 21 -24 23 -22 3 3 -6 15 -18 27 l-24 22 19 -27z"/>
<path d="M2416 2065 c-11 -8 -17 -17 -14 -20 2 -3 13 4 23 15 21 23 18 25 -9
5z"/>
<path d="M2468 2063 c-28 -7 -21 -21 13 -28 35 -8 44 -3 36 20 -6 15 -16 17
-49 8z"/>
<path d="M2305 2035 c17 -8 41 -14 55 -14 23 0 22 1 -9 14 -18 8 -43 15 -55
14 -18 0 -16 -3 9 -14z"/>
<path d="M2020 1720 c0 -5 14 -10 31 -10 17 0 28 4 24 10 -3 6 -17 10 -31 10
-13 0 -24 -4 -24 -10z"/>
<path d="M3158 2173 c7 -3 16 -2 19 1 4 3 -2 6 -13 5 -11 0 -14 -3 -6 -6z"/>
<path d="M3623 4868 c4 -23 21 -37 30 -24 8 11 29 -15 33 -42 4 -22 13 -27 26
-14 9 9 2 21 -31 52 -42 40 -63 50 -58 28z"/>
<path d="M1582 3228 c-18 -18 -15 -25 18 -42 29 -14 30 -14 30 8 0 21 -16 46
-30 46 -3 0 -11 -5 -18 -12z"/>
<path d="M1560 3116 c0 -2 7 -7 16 -10 8 -3 12 -2 9 4 -6 10 -25 14 -25 6z"/>
</g>
</svg>
